<svg viewbox="0 0 32 32" width="32" height="32" stroke="currentColor" fill="currentColor"><path d="M0 2.3C0 1 1.1 0 2.4 0h27.3C30.9 0 32 1 32 2.3v27.4c0 1.3-1.1 2.3-2.4 2.3H2.4C1.1 32 0 31 0 29.7V2.3z m9.9 24.5V12.3H5.1v14.5h4.8z m-2.4-16.4c1.7 0 2.7-1.1 2.7-2.5 0-1.4-1-2.5-2.7-2.5-1.6 0-2.7 1.1-2.7 2.5 0 1.4 1 2.5 2.7 2.5h0z m9.8 16.4V18.7c0-0.4 0-0.9 0.2-1.2 0.3-0.9 1.1-1.8 2.4-1.7 1.7 0 2.4 1.3 2.5 3.3v7.7h4.8V18.5c0-4.4-2.4-6.5-5.6-6.5-2.5 0-3.7 1.4-4.3 2.4v0h0a11.1 11.1 0 0 1 0 0V12.3h-4.8c0.1 1.4 0 14.4 0 14.5h4.8z"  /></svg>