<svg viewbox="0 0 32 32" width="32" height="32" stroke="currentColor" fill="currentColor"><path d="M10.1 30c12.1 0 18.7-10 18.6-18.7 0-0.3 0-0.6 0-0.8A13.4 13.4 0 0 0 32 7.1a13.3 13.3 0 0 1-3.8 1 6.6 6.6 0 0 0 2.9-3.6 13.1 13.1 0 0 1-4.2 1.6A6.6 6.6 0 0 0 15.8 12.1a18.6 18.6 0 0 1-13.6-6.9 6.6 6.6 0 0 0 2.1 8.8A6.6 6.6 0 0 1 1.3 13.2v0a6.6 6.6 0 0 0 5.2 6.5 6.4 6.4 0 0 1-1.7 0.2 6.5 6.5 0 0 1-1.2-0.1 6.6 6.6 0 0 0 6.1 4.5A13.2 13.2 0 0 1 1.6 27.2a12.6 12.6 0 0 1-1.6-0.1A18.7 18.7 0 0 0 10.1 30z"  /></svg>